<mxfile host="app.diagrams.net" agent="Mozilla/5.0 (Windows NT 10.0; Win64; x64) AppleWebKit/537.36 (KHTML, like Gecko) Chrome/128.0.0.0 Safari/537.36" version="24.7.12">
  <diagram name="Page-1" id="B0hmuPbm0VEshT8cctYc">
    <mxGraphModel dx="1673" dy="1815" grid="1" gridSize="10" guides="1" tooltips="1" connect="1" arrows="1" fold="1" page="1" pageScale="1" pageWidth="850" pageHeight="1100" math="0" shadow="0">
      <root>
        <mxCell id="0" />
        <mxCell id="1" parent="0" />
        <mxCell id="uNBusU7-LIBpm6ln_LhO-8" style="rounded=0;orthogonalLoop=1;jettySize=auto;html=1;entryX=0;entryY=0.5;entryDx=0;entryDy=0;exitX=0.5;exitY=0.5;exitDx=0;exitDy=0;exitPerimeter=0;" parent="1" source="uNBusU7-LIBpm6ln_LhO-1" target="uNBusU7-LIBpm6ln_LhO-9" edge="1">
          <mxGeometry relative="1" as="geometry">
            <mxPoint x="170" y="-80" as="sourcePoint" />
          </mxGeometry>
        </mxCell>
        <mxCell id="uNBusU7-LIBpm6ln_LhO-23" style="rounded=0;orthogonalLoop=1;jettySize=auto;html=1;exitX=0.5;exitY=0.5;exitDx=0;exitDy=0;exitPerimeter=0;" parent="1" source="uNBusU7-LIBpm6ln_LhO-1" target="uNBusU7-LIBpm6ln_LhO-17" edge="1">
          <mxGeometry relative="1" as="geometry" />
        </mxCell>
        <mxCell id="uNBusU7-LIBpm6ln_LhO-27" style="rounded=0;orthogonalLoop=1;jettySize=auto;html=1;entryX=0;entryY=0.5;entryDx=0;entryDy=0;exitX=0.5;exitY=0.5;exitDx=0;exitDy=0;exitPerimeter=0;" parent="1" source="uNBusU7-LIBpm6ln_LhO-1" target="uNBusU7-LIBpm6ln_LhO-25" edge="1">
          <mxGeometry relative="1" as="geometry" />
        </mxCell>
        <mxCell id="uNBusU7-LIBpm6ln_LhO-29" style="rounded=0;orthogonalLoop=1;jettySize=auto;html=1;entryX=0;entryY=0.5;entryDx=0;entryDy=0;exitX=0.5;exitY=0.5;exitDx=0;exitDy=0;exitPerimeter=0;" parent="1" source="uNBusU7-LIBpm6ln_LhO-1" target="uNBusU7-LIBpm6ln_LhO-26" edge="1">
          <mxGeometry relative="1" as="geometry" />
        </mxCell>
        <mxCell id="uNBusU7-LIBpm6ln_LhO-31" style="rounded=0;orthogonalLoop=1;jettySize=auto;html=1;entryX=0;entryY=0.5;entryDx=0;entryDy=0;exitX=0.5;exitY=0.5;exitDx=0;exitDy=0;exitPerimeter=0;" parent="1" source="uNBusU7-LIBpm6ln_LhO-1" target="uNBusU7-LIBpm6ln_LhO-24" edge="1">
          <mxGeometry relative="1" as="geometry" />
        </mxCell>
        <mxCell id="uNBusU7-LIBpm6ln_LhO-1" value="Pengguna" style="shape=umlActor;verticalLabelPosition=bottom;verticalAlign=top;html=1;outlineConnect=0;" parent="1" vertex="1">
          <mxGeometry x="140" y="-100" width="30" height="60" as="geometry" />
        </mxCell>
        <mxCell id="uNBusU7-LIBpm6ln_LhO-19" style="rounded=0;orthogonalLoop=1;jettySize=auto;html=1;entryX=0;entryY=0.5;entryDx=0;entryDy=0;exitX=0.5;exitY=0.5;exitDx=0;exitDy=0;exitPerimeter=0;" parent="1" source="uNBusU7-LIBpm6ln_LhO-2" target="uNBusU7-LIBpm6ln_LhO-17" edge="1">
          <mxGeometry relative="1" as="geometry" />
        </mxCell>
        <mxCell id="uNBusU7-LIBpm6ln_LhO-2" value="Admin" style="shape=umlActor;verticalLabelPosition=bottom;verticalAlign=top;html=1;outlineConnect=0;" parent="1" vertex="1">
          <mxGeometry x="140" y="30" width="30" height="60" as="geometry" />
        </mxCell>
        <mxCell id="uNBusU7-LIBpm6ln_LhO-11" style="rounded=0;orthogonalLoop=1;jettySize=auto;html=1;entryX=1;entryY=0.5;entryDx=0;entryDy=0;exitX=0.5;exitY=0.5;exitDx=0;exitDy=0;exitPerimeter=0;" parent="1" source="uNBusU7-LIBpm6ln_LhO-3" target="uNBusU7-LIBpm6ln_LhO-9" edge="1">
          <mxGeometry relative="1" as="geometry" />
        </mxCell>
        <mxCell id="uNBusU7-LIBpm6ln_LhO-20" style="rounded=0;orthogonalLoop=1;jettySize=auto;html=1;entryX=1;entryY=0.5;entryDx=0;entryDy=0;exitX=0.5;exitY=0.5;exitDx=0;exitDy=0;exitPerimeter=0;" parent="1" source="uNBusU7-LIBpm6ln_LhO-3" target="uNBusU7-LIBpm6ln_LhO-17" edge="1">
          <mxGeometry relative="1" as="geometry" />
        </mxCell>
        <mxCell id="uNBusU7-LIBpm6ln_LhO-28" style="rounded=0;orthogonalLoop=1;jettySize=auto;html=1;entryX=1;entryY=0.5;entryDx=0;entryDy=0;exitX=0.5;exitY=0.5;exitDx=0;exitDy=0;exitPerimeter=0;" parent="1" source="uNBusU7-LIBpm6ln_LhO-3" target="uNBusU7-LIBpm6ln_LhO-25" edge="1">
          <mxGeometry relative="1" as="geometry" />
        </mxCell>
        <mxCell id="uNBusU7-LIBpm6ln_LhO-30" style="rounded=0;orthogonalLoop=1;jettySize=auto;html=1;entryX=1;entryY=0.5;entryDx=0;entryDy=0;exitX=0.5;exitY=0.5;exitDx=0;exitDy=0;exitPerimeter=0;" parent="1" source="uNBusU7-LIBpm6ln_LhO-3" target="uNBusU7-LIBpm6ln_LhO-24" edge="1">
          <mxGeometry relative="1" as="geometry" />
        </mxCell>
        <mxCell id="uNBusU7-LIBpm6ln_LhO-3" value="Dokter" style="shape=umlActor;verticalLabelPosition=bottom;verticalAlign=top;html=1;outlineConnect=0;" parent="1" vertex="1">
          <mxGeometry x="980" y="-100" width="30" height="60" as="geometry" />
        </mxCell>
        <mxCell id="uNBusU7-LIBpm6ln_LhO-6" value="" style="swimlane;startSize=0;" parent="1" vertex="1">
          <mxGeometry x="230" y="-370" width="710" height="750" as="geometry" />
        </mxCell>
        <mxCell id="uNBusU7-LIBpm6ln_LhO-12" style="rounded=0;orthogonalLoop=1;jettySize=auto;html=1;dashed=1;" parent="uNBusU7-LIBpm6ln_LhO-6" source="uNBusU7-LIBpm6ln_LhO-7" target="uNBusU7-LIBpm6ln_LhO-9" edge="1">
          <mxGeometry relative="1" as="geometry" />
        </mxCell>
        <mxCell id="uNBusU7-LIBpm6ln_LhO-13" value="&amp;lt;&amp;lt;include&amp;gt;&amp;gt;" style="edgeLabel;html=1;align=center;verticalAlign=middle;resizable=0;points=[];" parent="uNBusU7-LIBpm6ln_LhO-12" vertex="1" connectable="0">
          <mxGeometry x="-0.3452" y="-2" relative="1" as="geometry">
            <mxPoint as="offset" />
          </mxGeometry>
        </mxCell>
        <mxCell id="uNBusU7-LIBpm6ln_LhO-7" value="Login" style="ellipse;whiteSpace=wrap;html=1;" parent="uNBusU7-LIBpm6ln_LhO-6" vertex="1">
          <mxGeometry x="270" y="60" width="160" height="50" as="geometry" />
        </mxCell>
        <mxCell id="uNBusU7-LIBpm6ln_LhO-9" value="Home" style="ellipse;whiteSpace=wrap;html=1;" parent="uNBusU7-LIBpm6ln_LhO-6" vertex="1">
          <mxGeometry x="260" y="170" width="180" height="50" as="geometry" />
        </mxCell>
        <mxCell id="uNBusU7-LIBpm6ln_LhO-18" style="rounded=0;orthogonalLoop=1;jettySize=auto;html=1;" parent="uNBusU7-LIBpm6ln_LhO-6" source="uNBusU7-LIBpm6ln_LhO-17" target="uNBusU7-LIBpm6ln_LhO-9" edge="1">
          <mxGeometry relative="1" as="geometry" />
        </mxCell>
        <mxCell id="uNBusU7-LIBpm6ln_LhO-17" value="Profile kesehatan" style="ellipse;whiteSpace=wrap;html=1;" parent="uNBusU7-LIBpm6ln_LhO-6" vertex="1">
          <mxGeometry x="225" y="260" width="250" height="80" as="geometry" />
        </mxCell>
        <mxCell id="uNBusU7-LIBpm6ln_LhO-24" value="Fitur Konsultasi" style="ellipse;whiteSpace=wrap;html=1;" parent="uNBusU7-LIBpm6ln_LhO-6" vertex="1">
          <mxGeometry x="260" y="630" width="190" height="80" as="geometry" />
        </mxCell>
        <mxCell id="uNBusU7-LIBpm6ln_LhO-25" value="Riwayat kesehatan diri / keluarga" style="ellipse;whiteSpace=wrap;html=1;" parent="uNBusU7-LIBpm6ln_LhO-6" vertex="1">
          <mxGeometry x="260" y="390" width="190" height="80" as="geometry" />
        </mxCell>
        <mxCell id="uNBusU7-LIBpm6ln_LhO-26" value="Pengingat Obat" style="ellipse;whiteSpace=wrap;html=1;" parent="uNBusU7-LIBpm6ln_LhO-6" vertex="1">
          <mxGeometry x="262.5" y="500" width="185" height="80" as="geometry" />
        </mxCell>
        <mxCell id="uNBusU7-LIBpm6ln_LhO-14" value="Registrasi" style="ellipse;whiteSpace=wrap;html=1;" parent="uNBusU7-LIBpm6ln_LhO-6" vertex="1">
          <mxGeometry x="520" y="20" width="170" height="50" as="geometry" />
        </mxCell>
        <mxCell id="uNBusU7-LIBpm6ln_LhO-15" style="rounded=0;orthogonalLoop=1;jettySize=auto;html=1;dashed=1;" parent="uNBusU7-LIBpm6ln_LhO-6" source="uNBusU7-LIBpm6ln_LhO-14" target="uNBusU7-LIBpm6ln_LhO-7" edge="1">
          <mxGeometry relative="1" as="geometry" />
        </mxCell>
        <mxCell id="uNBusU7-LIBpm6ln_LhO-16" value="&amp;lt;&amp;lt;include&amp;gt;&amp;gt;" style="edgeLabel;html=1;align=center;verticalAlign=middle;resizable=0;points=[];" parent="uNBusU7-LIBpm6ln_LhO-15" vertex="1" connectable="0">
          <mxGeometry x="-0.1013" y="5" relative="1" as="geometry">
            <mxPoint as="offset" />
          </mxGeometry>
        </mxCell>
        <mxCell id="jLb5TBIgQcXXwCUUjgDy-1" value="Artikel" style="ellipse;whiteSpace=wrap;html=1;" parent="uNBusU7-LIBpm6ln_LhO-6" vertex="1">
          <mxGeometry x="55" y="50" width="170" height="70" as="geometry" />
        </mxCell>
        <mxCell id="jLb5TBIgQcXXwCUUjgDy-4" value="" style="endArrow=classic;html=1;rounded=0;entryX=0.884;entryY=0.904;entryDx=0;entryDy=0;entryPerimeter=0;exitX=0.196;exitY=0.09;exitDx=0;exitDy=0;exitPerimeter=0;dashed=1;" parent="uNBusU7-LIBpm6ln_LhO-6" source="uNBusU7-LIBpm6ln_LhO-9" target="jLb5TBIgQcXXwCUUjgDy-1" edge="1">
          <mxGeometry width="50" height="50" relative="1" as="geometry">
            <mxPoint x="290" y="200" as="sourcePoint" />
            <mxPoint x="340" y="150" as="targetPoint" />
          </mxGeometry>
        </mxCell>
        <mxCell id="jLb5TBIgQcXXwCUUjgDy-5" value="&amp;lt;&amp;lt;extend&amp;gt;&amp;gt;" style="edgeLabel;html=1;align=center;verticalAlign=middle;resizable=0;points=[];" parent="jLb5TBIgQcXXwCUUjgDy-4" vertex="1" connectable="0">
          <mxGeometry x="0.0709" y="-1" relative="1" as="geometry">
            <mxPoint as="offset" />
          </mxGeometry>
        </mxCell>
        <mxCell id="uNBusU7-LIBpm6ln_LhO-10" style="rounded=0;orthogonalLoop=1;jettySize=auto;html=1;entryX=0;entryY=0.5;entryDx=0;entryDy=0;exitX=0.5;exitY=0.5;exitDx=0;exitDy=0;exitPerimeter=0;" parent="1" source="uNBusU7-LIBpm6ln_LhO-2" target="uNBusU7-LIBpm6ln_LhO-9" edge="1">
          <mxGeometry relative="1" as="geometry" />
        </mxCell>
        <mxCell id="uNBusU7-LIBpm6ln_LhO-33" style="rounded=0;orthogonalLoop=1;jettySize=auto;html=1;entryX=0;entryY=0.5;entryDx=0;entryDy=0;dashed=1;" parent="1" source="uNBusU7-LIBpm6ln_LhO-32" target="uNBusU7-LIBpm6ln_LhO-17" edge="1">
          <mxGeometry relative="1" as="geometry" />
        </mxCell>
        <mxCell id="uNBusU7-LIBpm6ln_LhO-34" value="&amp;lt;&amp;lt;extend&amp;gt;&amp;gt;" style="edgeLabel;html=1;align=center;verticalAlign=middle;resizable=0;points=[];" parent="uNBusU7-LIBpm6ln_LhO-33" vertex="1" connectable="0">
          <mxGeometry x="-0.2859" y="-2" relative="1" as="geometry">
            <mxPoint as="offset" />
          </mxGeometry>
        </mxCell>
        <mxCell id="uNBusU7-LIBpm6ln_LhO-32" value="Wearable Health Device" style="ellipse;whiteSpace=wrap;html=1;" parent="1" vertex="1">
          <mxGeometry x="10" y="-290" width="210" height="80" as="geometry" />
        </mxCell>
        <mxCell id="Jb1v0b-SyOkD85FAjSwU-1" value="" style="swimlane;startSize=0;" vertex="1" parent="1">
          <mxGeometry x="1490" y="-370" width="890" height="1330" as="geometry" />
        </mxCell>
        <mxCell id="Jb1v0b-SyOkD85FAjSwU-4" value="Memasukkan email dan kata sandi" style="ellipse;whiteSpace=wrap;html=1;" vertex="1" parent="Jb1v0b-SyOkD85FAjSwU-1">
          <mxGeometry x="280" y="30" width="150" height="70" as="geometry" />
        </mxCell>
        <mxCell id="Jb1v0b-SyOkD85FAjSwU-44" value="" style="edgeStyle=orthogonalEdgeStyle;rounded=0;orthogonalLoop=1;jettySize=auto;html=1;" edge="1" parent="Jb1v0b-SyOkD85FAjSwU-1" source="Jb1v0b-SyOkD85FAjSwU-5" target="Jb1v0b-SyOkD85FAjSwU-7">
          <mxGeometry relative="1" as="geometry" />
        </mxCell>
        <mxCell id="Jb1v0b-SyOkD85FAjSwU-5" value="Verifikasi kredensial" style="ellipse;whiteSpace=wrap;html=1;" vertex="1" parent="Jb1v0b-SyOkD85FAjSwU-1">
          <mxGeometry x="275" y="130" width="160" height="40" as="geometry" />
        </mxCell>
        <mxCell id="Jb1v0b-SyOkD85FAjSwU-45" value="" style="edgeStyle=orthogonalEdgeStyle;rounded=0;orthogonalLoop=1;jettySize=auto;html=1;" edge="1" parent="Jb1v0b-SyOkD85FAjSwU-1" source="Jb1v0b-SyOkD85FAjSwU-7" target="Jb1v0b-SyOkD85FAjSwU-9">
          <mxGeometry relative="1" as="geometry" />
        </mxCell>
        <mxCell id="Jb1v0b-SyOkD85FAjSwU-7" value="Masuk dalam home" style="ellipse;whiteSpace=wrap;html=1;" vertex="1" parent="Jb1v0b-SyOkD85FAjSwU-1">
          <mxGeometry x="282.5" y="200" width="145" height="40" as="geometry" />
        </mxCell>
        <mxCell id="Jb1v0b-SyOkD85FAjSwU-49" value="" style="edgeStyle=orthogonalEdgeStyle;rounded=0;orthogonalLoop=1;jettySize=auto;html=1;" edge="1" parent="Jb1v0b-SyOkD85FAjSwU-1" source="Jb1v0b-SyOkD85FAjSwU-8" target="Jb1v0b-SyOkD85FAjSwU-30">
          <mxGeometry relative="1" as="geometry" />
        </mxCell>
        <mxCell id="Jb1v0b-SyOkD85FAjSwU-8" value="Menyimpan perubahan" style="ellipse;whiteSpace=wrap;html=1;" vertex="1" parent="Jb1v0b-SyOkD85FAjSwU-1">
          <mxGeometry x="281.25" y="560" width="150" height="50" as="geometry" />
        </mxCell>
        <mxCell id="Jb1v0b-SyOkD85FAjSwU-46" value="" style="edgeStyle=orthogonalEdgeStyle;rounded=0;orthogonalLoop=1;jettySize=auto;html=1;" edge="1" parent="Jb1v0b-SyOkD85FAjSwU-1" source="Jb1v0b-SyOkD85FAjSwU-9" target="Jb1v0b-SyOkD85FAjSwU-10">
          <mxGeometry relative="1" as="geometry" />
        </mxCell>
        <mxCell id="Jb1v0b-SyOkD85FAjSwU-9" value="Dapat melihat artikel terbaru, riwayat kesehatan, atau notifikasi terkait kesehatan" style="ellipse;whiteSpace=wrap;html=1;" vertex="1" parent="Jb1v0b-SyOkD85FAjSwU-1">
          <mxGeometry x="260" y="270" width="190" height="80" as="geometry" />
        </mxCell>
        <mxCell id="Jb1v0b-SyOkD85FAjSwU-47" value="" style="edgeStyle=orthogonalEdgeStyle;rounded=0;orthogonalLoop=1;jettySize=auto;html=1;" edge="1" parent="Jb1v0b-SyOkD85FAjSwU-1" source="Jb1v0b-SyOkD85FAjSwU-10" target="Jb1v0b-SyOkD85FAjSwU-14">
          <mxGeometry relative="1" as="geometry" />
        </mxCell>
        <mxCell id="Jb1v0b-SyOkD85FAjSwU-10" value="Dapat megubah data pengguna dan riwayat kesehatan" style="ellipse;whiteSpace=wrap;html=1;" vertex="1" parent="Jb1v0b-SyOkD85FAjSwU-1">
          <mxGeometry x="280" y="380" width="152.5" height="70" as="geometry" />
        </mxCell>
        <mxCell id="Jb1v0b-SyOkD85FAjSwU-48" value="" style="edgeStyle=orthogonalEdgeStyle;rounded=0;orthogonalLoop=1;jettySize=auto;html=1;" edge="1" parent="Jb1v0b-SyOkD85FAjSwU-1" source="Jb1v0b-SyOkD85FAjSwU-14" target="Jb1v0b-SyOkD85FAjSwU-8">
          <mxGeometry relative="1" as="geometry" />
        </mxCell>
        <mxCell id="Jb1v0b-SyOkD85FAjSwU-14" value="Dapat mengubah artikel" style="ellipse;whiteSpace=wrap;html=1;" vertex="1" parent="Jb1v0b-SyOkD85FAjSwU-1">
          <mxGeometry x="278.75" y="480" width="155" height="50" as="geometry" />
        </mxCell>
        <mxCell id="Jb1v0b-SyOkD85FAjSwU-52" value="" style="edgeStyle=orthogonalEdgeStyle;rounded=0;orthogonalLoop=1;jettySize=auto;html=1;" edge="1" parent="Jb1v0b-SyOkD85FAjSwU-1" source="Jb1v0b-SyOkD85FAjSwU-24" target="Jb1v0b-SyOkD85FAjSwU-25">
          <mxGeometry relative="1" as="geometry" />
        </mxCell>
        <mxCell id="Jb1v0b-SyOkD85FAjSwU-24" value="Masuk dalam menu chatting atau vc" style="ellipse;whiteSpace=wrap;html=1;" vertex="1" parent="Jb1v0b-SyOkD85FAjSwU-1">
          <mxGeometry x="286.25" y="800" width="140" height="60" as="geometry" />
        </mxCell>
        <mxCell id="Jb1v0b-SyOkD85FAjSwU-53" value="" style="edgeStyle=orthogonalEdgeStyle;rounded=0;orthogonalLoop=1;jettySize=auto;html=1;" edge="1" parent="Jb1v0b-SyOkD85FAjSwU-1" source="Jb1v0b-SyOkD85FAjSwU-25" target="Jb1v0b-SyOkD85FAjSwU-26">
          <mxGeometry relative="1" as="geometry" />
        </mxCell>
        <mxCell id="Jb1v0b-SyOkD85FAjSwU-25" value="Mendapat notifikasi" style="ellipse;whiteSpace=wrap;html=1;" vertex="1" parent="Jb1v0b-SyOkD85FAjSwU-1">
          <mxGeometry x="291.87" y="890" width="130" height="50" as="geometry" />
        </mxCell>
        <mxCell id="Jb1v0b-SyOkD85FAjSwU-50" value="" style="edgeStyle=orthogonalEdgeStyle;rounded=0;orthogonalLoop=1;jettySize=auto;html=1;" edge="1" parent="Jb1v0b-SyOkD85FAjSwU-1" source="Jb1v0b-SyOkD85FAjSwU-30" target="Jb1v0b-SyOkD85FAjSwU-29">
          <mxGeometry relative="1" as="geometry" />
        </mxCell>
        <mxCell id="Jb1v0b-SyOkD85FAjSwU-30" value="Melihat profil dokter professional" style="ellipse;whiteSpace=wrap;html=1;" vertex="1" parent="Jb1v0b-SyOkD85FAjSwU-1">
          <mxGeometry x="281.24" y="640" width="150" height="50" as="geometry" />
        </mxCell>
        <mxCell id="Jb1v0b-SyOkD85FAjSwU-51" value="" style="edgeStyle=orthogonalEdgeStyle;rounded=0;orthogonalLoop=1;jettySize=auto;html=1;" edge="1" parent="Jb1v0b-SyOkD85FAjSwU-1" source="Jb1v0b-SyOkD85FAjSwU-29" target="Jb1v0b-SyOkD85FAjSwU-24">
          <mxGeometry relative="1" as="geometry" />
        </mxCell>
        <mxCell id="Jb1v0b-SyOkD85FAjSwU-29" value="Mengecek jadwal dokter" style="ellipse;whiteSpace=wrap;html=1;" vertex="1" parent="Jb1v0b-SyOkD85FAjSwU-1">
          <mxGeometry x="281.25" y="720" width="150" height="50" as="geometry" />
        </mxCell>
        <mxCell id="Jb1v0b-SyOkD85FAjSwU-54" value="" style="edgeStyle=orthogonalEdgeStyle;rounded=0;orthogonalLoop=1;jettySize=auto;html=1;" edge="1" parent="Jb1v0b-SyOkD85FAjSwU-1" source="Jb1v0b-SyOkD85FAjSwU-26" target="Jb1v0b-SyOkD85FAjSwU-27">
          <mxGeometry relative="1" as="geometry" />
        </mxCell>
        <mxCell id="Jb1v0b-SyOkD85FAjSwU-26" value="Melakukan konsultasi" style="ellipse;whiteSpace=wrap;html=1;" vertex="1" parent="Jb1v0b-SyOkD85FAjSwU-1">
          <mxGeometry x="281.25" y="970" width="150" height="50" as="geometry" />
        </mxCell>
        <mxCell id="Jb1v0b-SyOkD85FAjSwU-31" value="Mengisi jadwal free untuk konsultasi pasien" style="ellipse;whiteSpace=wrap;html=1;" vertex="1" parent="Jb1v0b-SyOkD85FAjSwU-1">
          <mxGeometry x="530" y="610" width="170" height="50" as="geometry" />
        </mxCell>
        <mxCell id="Jb1v0b-SyOkD85FAjSwU-36" value="" style="endArrow=classic;html=1;rounded=0;entryX=0.5;entryY=0;entryDx=0;entryDy=0;exitX=0.5;exitY=1;exitDx=0;exitDy=0;" edge="1" parent="Jb1v0b-SyOkD85FAjSwU-1" source="Jb1v0b-SyOkD85FAjSwU-4" target="Jb1v0b-SyOkD85FAjSwU-5">
          <mxGeometry width="50" height="50" relative="1" as="geometry">
            <mxPoint x="500" y="270" as="sourcePoint" />
            <mxPoint x="550" y="220" as="targetPoint" />
          </mxGeometry>
        </mxCell>
        <mxCell id="Jb1v0b-SyOkD85FAjSwU-55" value="" style="edgeStyle=orthogonalEdgeStyle;rounded=0;orthogonalLoop=1;jettySize=auto;html=1;" edge="1" parent="Jb1v0b-SyOkD85FAjSwU-1" source="Jb1v0b-SyOkD85FAjSwU-27" target="Jb1v0b-SyOkD85FAjSwU-23">
          <mxGeometry relative="1" as="geometry" />
        </mxCell>
        <mxCell id="Jb1v0b-SyOkD85FAjSwU-27" value="Memberikan diagnosa penyakit, cara penanganan, dan resep obat" style="ellipse;whiteSpace=wrap;html=1;" vertex="1" parent="Jb1v0b-SyOkD85FAjSwU-1">
          <mxGeometry x="258.75" y="1050" width="195" height="80" as="geometry" />
        </mxCell>
        <mxCell id="Jb1v0b-SyOkD85FAjSwU-56" value="" style="edgeStyle=orthogonalEdgeStyle;rounded=0;orthogonalLoop=1;jettySize=auto;html=1;" edge="1" parent="Jb1v0b-SyOkD85FAjSwU-1" source="Jb1v0b-SyOkD85FAjSwU-23" target="Jb1v0b-SyOkD85FAjSwU-32">
          <mxGeometry relative="1" as="geometry" />
        </mxCell>
        <mxCell id="Jb1v0b-SyOkD85FAjSwU-23" value="Membuat notifikasi untuk pengingat obat" style="ellipse;whiteSpace=wrap;html=1;" vertex="1" parent="Jb1v0b-SyOkD85FAjSwU-1">
          <mxGeometry x="273.75" y="1160" width="165" height="60" as="geometry" />
        </mxCell>
        <mxCell id="Jb1v0b-SyOkD85FAjSwU-32" value="Mendapat notifikasi pengingat obat" style="ellipse;whiteSpace=wrap;html=1;" vertex="1" parent="Jb1v0b-SyOkD85FAjSwU-1">
          <mxGeometry x="290.6300000000001" y="1250" width="131.25" height="50" as="geometry" />
        </mxCell>
        <mxCell id="Jb1v0b-SyOkD85FAjSwU-17" value="Dokter" style="shape=umlActor;verticalLabelPosition=bottom;verticalAlign=top;html=1;outlineConnect=0;" vertex="1" parent="1">
          <mxGeometry x="2460" y="250" width="70" height="115" as="geometry" />
        </mxCell>
        <mxCell id="Jb1v0b-SyOkD85FAjSwU-18" value="Admin" style="shape=umlActor;verticalLabelPosition=bottom;verticalAlign=top;html=1;outlineConnect=0;" vertex="1" parent="1">
          <mxGeometry x="1260" y="200" width="80" height="140" as="geometry" />
        </mxCell>
        <mxCell id="Jb1v0b-SyOkD85FAjSwU-19" value="Pengguna/pasien" style="shape=umlActor;verticalLabelPosition=bottom;verticalAlign=top;html=1;outlineConnect=0;" vertex="1" parent="1">
          <mxGeometry x="2465" y="-254" width="60" height="100" as="geometry" />
        </mxCell>
        <mxCell id="Jb1v0b-SyOkD85FAjSwU-34" value="" style="endArrow=classic;html=1;rounded=0;entryX=1;entryY=0.5;entryDx=0;entryDy=0;exitX=0;exitY=0.3333333333333333;exitDx=0;exitDy=0;exitPerimeter=0;" edge="1" parent="1" source="Jb1v0b-SyOkD85FAjSwU-19" target="Jb1v0b-SyOkD85FAjSwU-39">
          <mxGeometry width="50" height="50" relative="1" as="geometry">
            <mxPoint x="2020" y="10" as="sourcePoint" />
            <mxPoint x="2160" y="-320" as="targetPoint" />
          </mxGeometry>
        </mxCell>
        <mxCell id="Jb1v0b-SyOkD85FAjSwU-39" value="Pengguna membuka halaman registrasi" style="ellipse;whiteSpace=wrap;html=1;" vertex="1" parent="1">
          <mxGeometry x="2020" y="-339" width="150" height="60" as="geometry" />
        </mxCell>
        <mxCell id="Jb1v0b-SyOkD85FAjSwU-40" value="Pengguna mengisi data yang diperlukan" style="ellipse;whiteSpace=wrap;html=1;" vertex="1" parent="1">
          <mxGeometry x="2020" y="-239" width="150" height="70" as="geometry" />
        </mxCell>
        <mxCell id="Jb1v0b-SyOkD85FAjSwU-41" value="&lt;div&gt;Registrasi berhasil, data pengguna tersimpan ke dalam database&lt;/div&gt;" style="ellipse;whiteSpace=wrap;html=1;" vertex="1" parent="1">
          <mxGeometry x="2015" y="-119" width="160" height="80" as="geometry" />
        </mxCell>
        <mxCell id="Jb1v0b-SyOkD85FAjSwU-42" value="&amp;lt;&amp;lt;extend&amp;gt;&amp;gt;" style="endArrow=open;startArrow=none;endFill=0;startFill=0;endSize=8;html=1;verticalAlign=bottom;dashed=1;labelBackgroundColor=none;rounded=0;entryX=0.5;entryY=0;entryDx=0;entryDy=0;exitX=0.5;exitY=1;exitDx=0;exitDy=0;" edge="1" parent="1" source="Jb1v0b-SyOkD85FAjSwU-39" target="Jb1v0b-SyOkD85FAjSwU-40">
          <mxGeometry width="160" relative="1" as="geometry">
            <mxPoint x="1950" y="-109" as="sourcePoint" />
            <mxPoint x="2110" y="-109" as="targetPoint" />
          </mxGeometry>
        </mxCell>
        <mxCell id="Jb1v0b-SyOkD85FAjSwU-43" value="&amp;lt;&amp;lt;extend&amp;gt;&amp;gt;" style="endArrow=open;startArrow=none;endFill=0;startFill=0;endSize=8;html=1;verticalAlign=bottom;dashed=1;labelBackgroundColor=none;rounded=0;entryX=0.5;entryY=0;entryDx=0;entryDy=0;exitX=0.5;exitY=1;exitDx=0;exitDy=0;" edge="1" parent="1" source="Jb1v0b-SyOkD85FAjSwU-40" target="Jb1v0b-SyOkD85FAjSwU-41">
          <mxGeometry width="160" relative="1" as="geometry">
            <mxPoint x="2105" y="-269" as="sourcePoint" />
            <mxPoint x="2105" y="-229" as="targetPoint" />
            <Array as="points" />
          </mxGeometry>
        </mxCell>
        <mxCell id="Jb1v0b-SyOkD85FAjSwU-57" value="" style="endArrow=classic;html=1;rounded=0;entryX=1;entryY=0.5;entryDx=0;entryDy=0;exitX=0;exitY=0.3333333333333333;exitDx=0;exitDy=0;exitPerimeter=0;" edge="1" parent="1" source="Jb1v0b-SyOkD85FAjSwU-17" target="Jb1v0b-SyOkD85FAjSwU-31">
          <mxGeometry width="50" height="50" relative="1" as="geometry">
            <mxPoint x="1860" y="110" as="sourcePoint" />
            <mxPoint x="1910" y="60" as="targetPoint" />
          </mxGeometry>
        </mxCell>
        <mxCell id="Jb1v0b-SyOkD85FAjSwU-58" value="" style="endArrow=classic;html=1;rounded=0;exitX=1;exitY=0.3333333333333333;exitDx=0;exitDy=0;exitPerimeter=0;entryX=0;entryY=0.5;entryDx=0;entryDy=0;" edge="1" parent="1" source="Jb1v0b-SyOkD85FAjSwU-18" target="Jb1v0b-SyOkD85FAjSwU-5">
          <mxGeometry width="50" height="50" relative="1" as="geometry">
            <mxPoint x="1940" y="180" as="sourcePoint" />
            <mxPoint x="1990" y="130" as="targetPoint" />
          </mxGeometry>
        </mxCell>
        <mxCell id="Jb1v0b-SyOkD85FAjSwU-59" value="" style="endArrow=classic;html=1;rounded=0;entryX=0;entryY=0.5;entryDx=0;entryDy=0;" edge="1" parent="1" source="Jb1v0b-SyOkD85FAjSwU-18" target="Jb1v0b-SyOkD85FAjSwU-10">
          <mxGeometry width="50" height="50" relative="1" as="geometry">
            <mxPoint x="1340" y="250" as="sourcePoint" />
            <mxPoint x="1640" y="-120" as="targetPoint" />
          </mxGeometry>
        </mxCell>
        <mxCell id="Jb1v0b-SyOkD85FAjSwU-60" value="&amp;lt;&amp;lt;extend&amp;gt;&amp;gt;" style="endArrow=open;startArrow=none;endFill=0;startFill=0;endSize=8;html=1;verticalAlign=bottom;dashed=1;labelBackgroundColor=none;rounded=0;entryX=1;entryY=0.5;entryDx=0;entryDy=0;exitX=0;exitY=0.5;exitDx=0;exitDy=0;" edge="1" parent="1" source="Jb1v0b-SyOkD85FAjSwU-41" target="Jb1v0b-SyOkD85FAjSwU-4">
          <mxGeometry width="160" relative="1" as="geometry">
            <mxPoint x="1975" y="-124" as="sourcePoint" />
            <mxPoint x="1975" y="-84" as="targetPoint" />
            <Array as="points">
              <mxPoint x="1975" y="-79" />
              <mxPoint x="1975" y="-305" />
            </Array>
          </mxGeometry>
        </mxCell>
        <mxCell id="Jb1v0b-SyOkD85FAjSwU-61" value="" style="endArrow=classic;html=1;rounded=0;exitX=0;exitY=0.3333333333333333;exitDx=0;exitDy=0;exitPerimeter=0;entryX=0.5;entryY=0;entryDx=0;entryDy=0;" edge="1" parent="1" source="Jb1v0b-SyOkD85FAjSwU-19" target="Jb1v0b-SyOkD85FAjSwU-4">
          <mxGeometry width="50" height="50" relative="1" as="geometry">
            <mxPoint x="2230" y="30" as="sourcePoint" />
            <mxPoint x="2280" y="-20" as="targetPoint" />
            <Array as="points">
              <mxPoint x="2300" y="-300" />
              <mxPoint x="2150" y="-360" />
              <mxPoint x="1845" y="-360" />
            </Array>
          </mxGeometry>
        </mxCell>
      </root>
    </mxGraphModel>
  </diagram>
</mxfile>
